{"title":"Transformers Age of Extinction(2014)MPEG-4[DaScubaDude]","uid":15237636,"size":1784058941,"categoryP":"video","categoryS":"movies","magnet":"?xt=urn:btih:11d246bcbfaa5bff47fac28956a4bfe79cbd48e6&amp;dn=Transformers+Age+of+Extinction%282014%29MPEG-4%5BDaScubaDude%5D&amp;tr=udp%3A%2F%2Ftracker.leechers-paradise.org%3A6969&amp;tr=udp%3A%2F%2Fzer0day.ch%3A1337&amp;tr=udp%3A%2F%2Fopen.demonii.com%3A1337&amp;tr=udp%3A%2F%2Ftracker.coppersurfer.tk%3A6969&amp;tr=udp%3A%2F%2Fexodus.desync.com%3A6969","seeders":1,"leechers":0,"uploader":"dascuba","files":1,"time":1467903786,"description":"Transformers: Age of Extinction (2014)\r\nPG-13 | 2h 45min | Action, Adventure, Sci-Fi | 27 June 2014 (USA)\r\nAutobots must escape sight from a bounty hunter who has taken control of the human serendipity: Unexpectedly, Optimus Prime and his remaining gang turn to a mechanic, his daughter, and her back street racing boyfriend for help.\r\nDirector: Michael Bay\r\nWriter: Ehren Kruger\r\nStars: Mark Wahlberg, Nicola Peltz, Jack Reynor |\r\n\r\nGeneral\r\nComplete name                            : TransformersAgeTRANSFORMERS_AGE_OF_EXTINCTION_Title1.mp4\r\nFormat                                   : MPEG-4\r\nFormat profile                           : Base Media\r\nCodec ID                                 : isom (isom/iso2/avc1/mp41)\r\nFile size                                : 1.66 GiB\r\nDuration                                 : 2h 44mn\r\nOverall bit rate                         : 1 442 Kbps\r\nMovie name                               : TRANSFORMERS_AGE_OF_EXTINCTION\r\nGenre                                    : Action\r\nWriting application                      : Lavf54.6.100\r\n\r\nVideo\r\nID                                       : 1\r\nFormat                                   : AVC\r\nFormat/Info                              : Advanced Video Codec\r\nFormat profile                           :   \r\nFormat settings, CABAC                   : No\r\nFormat settings, ReFrames                : 6 frames\r\nCodec ID                                 : avc1\r\nCodec ID/Info                            : Advanced Video Coding\r\nDuration                                 : 2h 44mn\r\nBit rate                                 : 1 189 Kbps\r\nWidth                                    : 720 pixels\r\nHeight                                   : 404 pixels\r\nDisplay aspect ratio                     : 16:9\r\nFrame rate mode                          : Constant\r\nFrame rate                               : 29.970 (30000/1001) fps\r\nColor space                              : YUV\r\nChroma subsampling                       : 4:2:0\r\nBit depth                                : 8 bits\r\nScan type                                : Progressive\r\nBits/(Pixel*Frame)                       : 0.136\r\nStream size                              : 1.37 GiB (82%)\r\n\r\nAudio\r\nID                                       : 2\r\nFormat                                   : AAC\r\nFormat/Info                              : Advanced Audio Codec\r\nFormat profile                           : LC\r\nCodec ID                                 : 40\r\nDuration                                 : 2h 44mn\r\nBit rate mode                            : Constant\r\nBit rate                                 : 247 Kbps\r\nChannel(s)                               : 2 channels\r\nChannel(s)_Original                      : 6 channels\r\nChannel positions                        : Front: L C R, Side: L R, LFE\r\nSampling rate                            : 44.1 KHz\r\nFrame rate                               : 43.066 fps (1024 spf)\r\nCompression mode                         : Lossy\r\nStream size                              : 291 MiB (17%)\r\nDefault                                  : Yes\r\nAlternate group                          : 1","torrent":{"xt":"urn:btih:11d246bcbfaa5bff47fac28956a4bfe79cbd48e6","amp;dn":"Transformers+Age+of+Extinction%282014%29MPEG-4%5BDaScubaDude%5D","amp;tr":["udp%3A%2F%2Ftracker.leechers-paradise.org%3A6969","udp%3A%2F%2Fzer0day.ch%3A1337","udp%3A%2F%2Fopen.demonii.com%3A1337","udp%3A%2F%2Ftracker.coppersurfer.tk%3A6969","udp%3A%2F%2Fexodus.desync.com%3A6969"],"infoHash":"11d246bcbfaa5bff47fac28956a4bfe79cbd48e6","infoHashBuffer":{"type":"Buffer","data":[17,210,70,188,191,170,91,255,71,250,194,137,86,164,191,231,156,189,72,230]},"announce":[],"urlList":[]}}